<svg xmlns="http://www.w3.org/2000/svg" version="1.0" viewBox="0 0 1800 900"><path fill="#FF0" fill-opacity=".7" d="M581.4 625c0 15.1.2 21.3.3 13.7.2-7.5.2-19.9 0-27.5-.1-7.5-.3-1.3-.3 13.8"/><path fill="#FF0" fill-opacity=".9" d="M525.5 609c0 22.8.1 32.2.2 20.8.2-11.5.2-30.1 0-41.5-.1-11.5-.2-2.1-.2 20.7m353.3 55.2c.4 36.8.8 40.1 1 10.5.1-16.3-.1-29.7-.5-29.7-.5 0-.7 8.7-.5 19.2"/><path fill="#FF0" d="M824 209.7c-23.7 2.3-43.2 10.2-60.2 24.6-5.6 4.7-15 15.9-20.2 23.9-3.6 5.7-4.9 6.7-6.1 4.9-.3-.6-1.8-1.6-3.3-2.4-1.5-.7-3.6-1.8-4.7-2.4-6.7-3.7-13.5-6.4-14.4-5.9-.6.4-1.1.3-1.1-.3 0-.5-1-1.3-2.2-1.6-1.3-.4-3.6-1.3-5.3-2-5.7-2.5-19.6-6.7-20.2-6.1-.3.3-1.4.1-2.4-.5-5.5-2.9-38.4-5.1-55.4-3.6-22.2 1.9-42.8 7.5-62.2 16.8-4.4 2.1-8.4 3.9-8.9 3.9-.4 0-1.6.7-2.6 1.7-2.2 2-5.3 3.8-9 5.3-1.4.6-2.9 1.8-3.2 2.6s-1.1 1.4-1.9 1.4c-.7 0-2.4 1.1-3.7 2.5s-3.1 2.5-4 2.5-2.6 1.4-3.9 3c-1.2 1.7-3.7 3.8-5.4 4.6-1.8.9-4.8 3.8-6.7 6.4-1.9 2.7-4.1 5-4.8 5-1.7 0-6.6 5-12.7 13-2.7 3.6-5.3 6.6-5.7 6.8-.5.2-.8 1.3-.8 2.4s-2 4.6-4.5 7.7c-2.4 3.2-4.1 6.1-3.8 6.5.4.3-.8 2.4-2.5 4.5-1.8 2.2-3.2 5-3.2 6.1 0 1.2-.9 3.3-2 4.7s-2 3.4-2 4.3c0 1-.7 2.3-1.5 3s-1.5 2.3-1.5 3.6c0 1.2-.4 2.6-1 2.9s-1 1.7-1 3-.4 2.6-.9 2.9-1.2 2.7-1.6 5.3c-.4 2.7-1 5.2-1.4 5.8-1.9 2.4-5 22-5.4 34.2-.2 6.3-.2 6.3 4.8 9.5 18.2 11.8 31.9 35.7 31.8 55.8 0 7.5-.4 9.2-3.2 14.8-2.9 5.7-10.2 14.2-12.2 14.2-1.5 0 2.2 9 4.6 11 .8.7 1.5 2 1.5 3 0 .9.9 2.5 2 3.5s2 2.4 2 3.1 1.4 2.4 3 3.7c1.6 1.4 3 3.1 3 3.8 0 1.4 4.7 5.9 6.2 5.9.5 0 .8.6.5 1.4-.4.9 2.5 4.3 7.9 9.2 5.3 4.8 8.1 8 7.4 8.4-.7.5 0 1.7 2.2 3.5 3.3 2.8 3.3 2.8 3.8 49.9.5 42.6.7 47.4 2.3 50.3 5.4 10 14.3 15.6 24.7 15.7 11.6 0 20.4-5.6 25.4-16.3 2-4.3 2.1-6.6 2.4-35.4.2-18.9.7-30.7 1.3-30.7.5 0 2.4.6 4.2 1.3 1.8.8 5 1.7 7.2 2.1s4.5 1.1 5 1.5c.9.7 12.6 3 23.5 4.6 14.4 2.2 40.5 1.2 56.3-2.1 4.6-.9 7.5-1.1 8.7-.4.9.5 2.1.6 2.5.2.5-.4.5-.2.1.5-.7 1.2 4.1 6.1 10.6 10.8 29.7 21.5 48.3 30 81.6 37.5 2.9.7 7.1 1.4 9.5 1.6 9.4.8 8.7-.6 8.7 17 0 11.7.4 16.4 1.5 19.2 6.5 15.4 28.2 16.4 36.3 1.7 1.3-2.3 1.8-6.8 2.2-20 .5-17 .5-17 4.5-17.7 15-2.5 23.4-4.2 26-5.3 1.7-.7 4.4-1.6 6.2-1.9 3.2-.5 3.2-.5 3.5 33.8s.3 34.3 4.5 42.8c5.1 10.2 11.9 17 22.1 22 6.5 3.2 7 3.3 19.7 3.3 13 0 13 0 20-3.7 6.8-3.5 14.9-10.8 19.2-17.3 1.1-1.7 3.1-5.9 4.4-9.5 2.3-6.5 2.3-6.5 2.9-74.1.5-62.4.6-67.7 2.3-70 10.2-14.1 20.2-34.6 25.5-52.4 4.2-14.2 4.2-14.1 1.6-16.6-2.9-2.8-9.5-13.9-11.7-19.9-3.1-8.4-4.6-20.2-7.1-57.5-.7-9.5 2.9-24.3 7.9-33.3 2.5-4.4 2.5-4.4-2.1-13.9-2.5-5.3-5.3-10.7-6.3-12.2-1-1.4-3.1-4.6-4.7-7.1-3.8-5.9-10.3-14.6-14-18.9-5.2-6-23.9-24.5-27.6-27.3-3.4-2.6-3.5-2.9-4.1-11-3.1-39.8-31.2-75.2-69.7-88-11.3-3.8-28.7-6.1-39-5.1m18.9 90.8c6.2 2.1 10.3 5.8 13.3 11.7 2.5 4.9 2.8 7.3 4.9 32.4 2.2 27.1 2.2 27.1 6.8 24.6 12.1-6.5 33.4-10 47.1-7.6 16.7 2.9 30 9.6 42 21.5 12.3 12 19.7 25.6 22 40.3.6 3.9 2.8 27.8 5 53.2 4.4 50.4 4.4 49.8-1.1 57.6-2.7 3.8-11.1 7.8-16.4 7.8-9.6 0-15.8-3.8-19.9-12.3-2.4-4.9-2.8-8.2-6.6-51.7-2.6-29.8-4.6-48.5-5.7-52-2.1-7-9.3-14.8-17.1-18.5-5.4-2.6-6.3-2.7-16-2.2-9.4.4-10.7.8-15.8 3.8-8.6 5.2-15 14.6-15.9 23.1-.2 2.4 1.4 24.7 3.5 49.6 2.2 24.9 4 47.1 4 49.3 0 5.1-2.8 10.6-7.8 15.1-9.4 8.5-25.1 6.6-31.7-3.9-2.5-4-3-4-4.3-.5-1.4 4.1-6.6 9.7-10.7 11.6-4.1 2-22.6 3-27.8 1.6-1.8-.5-4.3-1.1-5.7-1.4-5-.8-16.6-6.1-23-10.4-18.3-12.4-29.9-30-33.9-51.7-1.7-9-1.9-9.5-2.1-5-.4 14.1-1.3 20.3-3.4 26.2-.8 2.4-1.3 4.3-1.1 4.3 1.4 0-7.8 16.8-12.7 23.1-12.8 16.7-29.5 25.8-51.8 28.4-12 1.3-16 1-27-2.3-3-.9-5.8-1.6-6.1-1.6-2.6-.3-17.3-9.1-22.8-13.7-11.1-9.4-21-24.6-23-35.5-1.3-7.1.2-12.9 5-18.7 5.6-6.8 16.4-9.3 24.5-5.7 6.6 2.9 8.3 4.5 11.5 11.5 6.1 13.4 17.2 21.5 29.5 21.5 9.1 0 16-2.2 21.6-7 9.2-8 13.7-23.5 10.4-36.2-2.9-11.2-9.8-18.6-22.2-23.8-10.2-4.2-12.8-6.1-16.1-11.8-4.1-7-4.9-17-1.9-23.7 2.6-5.8 7.2-10.8 12.5-13.5 9.2-4.7 15.5-16 15.3-27.7-.1-5.5-3.9-16.2-6.9-19.6-6-6.5-16-10.3-24.9-9.1-9.6 1.2-20.7 11.4-21.7 19.9-.5 3.6-3.2 9.1-6.1 12.3s-6.6 5.1-12.6 6.2c-12.9 2.5-25.5-9-24.9-22.9.4-9.2 5.9-22.3 13.5-32.3 9.2-11.9 21.4-20.7 34.9-25.3 8.9-2.9 26.2-4.2 32.9-2.4 2.2.7 5 1.3 6.1 1.4 4.2.6 16.3 6.9 23.2 12.1 4 3 9.8 8.5 12.9 12.2 6.3 7.5 14 22.6 15 29.3.4 2.4 1.1 5.2 1.6 6.2 1.6 3 1 24.2-.8 30.5-2.6 9.1-6.5 18.2-10.1 23.5-1.8 2.7-3.3 5.2-3.3 5.6s2 2.3 4.4 4.4c5 4.1 12.2 14.1 16.4 22.5 2.5 5 6.2 17.5 7.5 25.2 1.5 9.1 0-12.1-5.3-72.7-3.4-37.8-6.2-71.3-6.3-74.3-.4-13.5 8.9-23.7 22-24.1 8.8-.3 15.4 3.9 20 12.6.6 1.1 2.1 13.5 3.3 27.5s2.3 25.6 2.4 25.7 4.6-.2 10.1-.8c17.2-1.6 23.3.5 30.6 10.5 2.5 3.4 2.9 4.8 2.9 10.6 0 6-.4 7.4-3.2 11.6-5 7.5-10.6 10-23.8 10.9-5.9.4-11.2 1-11.8 1.4-1.1.6 3.9 61.2 5.6 68.1 2.3 8.9 7.1 15.4 15.2 20.5 4.7 3 6.8 3.5 19 4.4 10.6.9 15.1 2.6 19.2 7.4 2.7 3.2 2.7 3.2 2.8.7 0-1.4-3.8-46.1-8.5-99.3-4.7-53.3-8.5-98.6-8.5-100.8 0-8.1 6.3-15.9 15.2-19 6.5-2.2 7.5-2.3 12.7-.4m-297 17.1c3.9 2 6.1 4 8.6 7.8 3.3 5.1 3.3 5.1 10.5 88.6 3.9 45.9 8.5 97.4 10 114.5 2.8 31 2.8 31 .8 35.5-2.7 6.4-7.4 10.8-13.2 12.5-9 2.7-15.3 1.4-21.4-4.3-7.4-6.9-7.3-6.2-14.7-92.2-3.7-42.6-7-79.9-7.3-82.8-.7-5.2-.7-5.2-7.7 3.3-5 6.2-8.4 9.2-11.9 11-14.9 7.4-31.6-3.1-31.6-19.9 0-5.8 3.1-10.5 19.8-30.4 8.6-10.3 19.8-23.7 24.9-29.7 5-6.1 10.6-11.8 12.3-12.9 7.3-4.3 13.6-4.6 20.9-1"/><path fill="#FFF" d="M1447.8 252.9c-5.2.8-8.2 2.9-10.8 8.1-1.8 3.5-1.7 5.3 7.6 110.5 5.1 58.9 9.4 108 9.4 109.2 0 4.1 5.3 8.8 11.5 10.3 5.2 1.2 5.7 1.2 10.1-1 3.8-2 6.5-4.7 6.9-7 .1-.3.4-1.5.8-2.7.7-1.8-2-38.3-3.9-53.6-1-8.1-3.5-10.5 36.7 33.8 3.5 3.9 9.5 10.5 13.3 14.7 7.5 8.3 8.3 8.8 13.6 9.4 5 .5 8.5-.4 11.3-3 4.4-4.1 5.8-8 5.1-13.8-.6-4.4-1.5-6-6.2-11.2-9.5-10.5-20.5-22.6-32.2-35.6-6.2-6.9-14.1-15.6-17.6-19.4s-6.4-7.4-6.4-8c0-1.1 7.7-11 14.2-18.5 1.8-2.1 5.8-6.8 8.8-10.6 3-3.7 7.8-9.3 10.5-12.5 7.2-8.3 11-13.1 12.5-16 1.9-3.6 1.3-10.9-1.2-14.6-2.9-4.3-5.1-5.5-11.2-6.1-6.7-.7-10.8 1.7-17.8 10.4-2.9 3.5-7.3 8.9-9.8 11.8s-6.5 7.8-9 10.7c-15.4 18.6-18.4 21.8-19 21.1-.4-.4-2.8-24.5-5.2-53.5-5-57.7-4.8-56.9-11.8-61.5-1.8-1.3-3.8-2.2-4.4-2.2-.6.1-3.2.5-5.8.8m203.3 58.3c-1.3 3.5-3.3 8.3-4.4 10.8-1.2 2.5-2.1 4.9-2.2 5.5-.1.5-1.1 3-2.2 5.5-1.2 2.5-2.9 6.6-3.8 9.3-.9 2.6-2.1 4.5-2.6 4.1-.5-.3-3-3.8-5.5-7.7-2.5-4-5.4-8.3-6.4-9.7-.9-1.4-2.7-4.5-4-7-1.2-2.4-2.9-5-3.6-5.8-.8-.8-2.1-2.7-2.9-4.3-1.7-3.2-5.4-3.9-7.4-1.5-.8 1-.4 10 1.9 35.5 1.6 18.9 3 34.9 3 35.7s1.1 2 2.5 2.6c2.1.9 2.9.9 4.1-.4 1.4-1.4 1.4-3.9-.5-25.4-2.5-28.2-2.4-25.4-.8-25.4.7 0 2.3 1.9 3.5 4.2 3.5 6.7 6.9 12.2 8.5 13.8.8.8 2.4 3.4 3.5 5.6 2 4 4.9 5.9 6.9 4.5.5-.3 1.8-2.6 3-5.1 4.5-10.3 7.3-16.8 8.9-21.3 1.7-4.7 3.4-6.2 3.4-3 0 1 .9 11.6 2 23.7 1.5 17.2 2.3 22.3 3.6 23.7 2.2 2.4 3.2 2.4 5.6-.3 1.4-1.7 1.7-3.2 1.3-6.2-.3-2.3-1.7-17.8-3.1-34.6s-3.1-31.1-3.6-31.8c-.6-.6-2.2-1.2-3.7-1.2-2.3 0-2.9.8-5 6.2m-75.6.6c-14.6 1.3-17.2 1.8-18.7 3.5-2.1 2.3-2.1 2.7-.8 4.7.7 1.1 2.9 1.5 9.5 1.5 7.9-.1 8.5.1 8.5 2 0 1.1 1.1 14.6 2.5 30 1.4 15.3 2.5 28.5 2.5 29.2s.9 2.2 2 3.3c2.3 2.3 5.4 1.4 6.5-1.9.3-1-.6-14.8-2-30.5-1.4-15.8-2.5-29.7-2.5-31 0-2.1.5-2.4 7.1-2.9 7.8-.7 9.9-1.8 9.9-5.3 0-2.5-2.7-4.5-5.7-4.3-1 .1-9.4.9-18.8 1.7m-227 4.9c-18 2.3-33.7 10.8-45 24.1-5 6-13.5 21.3-13.9 25.2-.1.8-.8 3.5-1.5 6-.8 2.5-1.4 9-1.3 14.5 0 8.9.3 10.7 3 16.6 3.1 7 8.3 12.3 15.4 15.8 3.5 1.7 5.7 1.9 19.1 1.6 8.4-.2 27.7-1.5 43-2.9 15.3-1.5 28.9-2.6 30.2-2.6 5.4 0 3.6 14.2-3.3 24.9-4.6 7-13.4 14.2-19.8 16.1-7.4 2.2-18.5 2.9-23.3 1.4-2.5-.7-4.7-1.1-4.9-.9-.8.7-10.7-6-14.6-10-6.2-6.2-8-7.2-13.6-6.9-6.1.3-11.3 3.7-13.5 9.1-3.3 7.9-.9 13.9 9 22.7 7.1 6.5 18.5 13.5 22.8 14.1 1.2.2 4.2 1 6.7 1.8 3 .9 8.5 1.4 16.5 1.3 12.7-.2 18-.9 23.2-3.2 1.7-.8 3.6-1.4 4.3-1.4 2.4 0 14.4-7.4 20.3-12.6 12.3-10.7 22-28.9 23.2-43.4 1.1-12.8-1.3-46-4.2-58.5-1.5-6.3-7-19-9.4-21.9-.5-.6-2-2.5-3.2-4.1-2.4-3.2-14-14.5-15-14.5-.3 0-2.9-1.6-5.8-3.5-3-1.9-5.9-3.5-6.7-3.5-.7 0-2.7-.8-4.5-1.7s-5.2-2-7.7-2.5c-5.4-1-21.3-1.7-25.5-1.1m22.4 32.3c2.4 1.1 4.9 2 5.6 2 .6 0 4.3 2.8 8 6.2 7.6 7 12.5 16 12.5 22.9 0 3.4-.3 3.9-2.2 3.9-1.3.1-18.9 1.6-39.3 3.4-20.3 1.8-37.2 3.1-37.5 2.9-.6-.6-.5-8.1.2-12.3 1-5.4 2.4-8.6 6.7-14.3 4.8-6.4 7.2-8.6 13.6-12.2 8.5-4.7 24.8-5.9 32.4-2.5m-273 4.4c-2.2 1.5-4.3 4.1-5.3 6.5-.9 2.3-2 4.1-2.5 4.1-.6 0-2.5-.9-4.4-2-3.7-2.2-13.1-5.1-18.7-5.7-7.1-.8-21.5-.4-26.4.8-6.5 1.5-17.6 5.7-19.6 7.4-.8.7-2.8 2-4.5 2.8-3.7 1.9-14.2 11.9-17.8 16.9-7.7 10.7-12.2 22.3-13.3 35.1-.7 8.4 2.4 51.7 3.8 51.7.4 0 .8 1.7.8 3.7.1 2.1.9 5.6 2 7.8s1.9 4.5 2 5c0 2.3 9 15.3 14.1 20.5 5 5.1 18.2 14.7 19.7 14.4.4-.1 2.5.7 4.7 1.9 2.2 1.1 4.9 2.1 6 2.2 1.1.2 3.9.8 6.2 1.4 5.4 1.5 25.5.6 33.2-1.4 6.7-1.7 12.8-4.5 19.8-9.1 2.8-1.9 5.4-3.4 5.7-3.4s.6 2 .6 4.4c0 2.5.4 4.7 1 5.1 1.6 1-.1 13.7-2.5 18.7-1.3 2.5-2.1 4.9-1.8 5.2s-2.8 3.8-6.9 7.9c-6 5.9-8.7 7.8-13.9 9.7-15.1 5.5-31.7 2.3-43.7-8.4-4.2-3.7-13.8-2-18.6 3.3-2.3 2.5-5.1 12.4-3.6 12.9.5.2 1 1.3 1 2.5.1 7.5 22.4 20.4 38.5 22.4 10.5 1.3 30.5-.3 34-2.7.6-.4 3.4-1.5 6.2-2.4 2.9-1 5.5-2.2 5.9-2.7.3-.5 2.2-1.8 4.2-2.8 8.8-4.5 22.5-21.1 27.1-32.9 2.2-5.5 4.7-17.3 4.9-23.2.1-1.9-2.8-37-6.3-78-3.6-41-6.8-77.9-7.1-82-.6-8.4-3.3-15.1-7.2-17.6-1.3-.9-5-1.8-8.1-2-4.7-.4-6.2 0-9.2 2m-30.8 34c2.6.3 13.2 6.6 16.7 10 4.6 4.3 10 12.8 11.3 17.9 1.2 4.7 4.9 42.4 4.4 44.1-.2.6-.6 3.2-.9 5.7-1.1 11.6-12.3 25.6-24.5 30.5-5.5 2.2-8.1 2.7-16.1 2.7-8.9 0-9.9-.2-16.5-3.6-7.7-3.9-16.7-12.4-18.9-17.9-.7-1.8-1.7-4.2-2.1-5.3-.5-1.1-1.8-12.8-3-26-2-22-2.1-24.4-.7-29 .9-2.8 1.6-5.5 1.7-6 .6-2.6 7.1-10.9 11.9-15 9.5-8 19.6-10.3 36.7-8.1m131.9-27c-3 .7-6.2 1.5-7 1.8-.8.4-3.3 1.2-5.5 1.9-2.2.6-4.2 1.5-4.5 1.9s-2.5 1.8-5 3c-6.3 3.2-14.7 11-21.1 19.6-3.9 5.3-9.9 17.3-9.9 19.9 0 .9-.4 2.4-1 3.4-1 2-2.1 11.2-2.1 18.1 0 9 3.2 40.7 4.8 47.5 1.6 6.7 6.6 19.4 8.2 20.5.4.3 1.7 2.2 2.9 4.2 2.6 4.3 13 14.6 17 16.8 1.5.9 4.7 2.8 7.1 4.4 2.3 1.5 5.1 2.9 6.1 3.1s2.8.8 3.9 1.4c7.6 4.1 30 4.7 43.1 1.2 7.9-2.1 18.5-6.8 22.1-9.8 5.2-4.3 14.4-14.2 17.5-18.8 3-4.3 3.4-5.8 3.4-11.1 0-5.8-.2-6.4-4-10.3-2.2-2.2-4.6-4.1-5.2-4.2-.7 0-2.9-.2-4.8-.4-5.9-.7-9.2 1.1-13.7 7.3-6 8.2-8.8 10.9-13.6 13.3-2.3 1.2-4.4 2.5-4.7 3-.8 1.2-13.5 3-19.4 2.8-10.1-.4-21.6-6.4-29.1-15.2-1.9-2.2-3.5-4.5-3.5-4.9 0-.5-.9-2.8-2-5-2.6-5.4-2.7-11.8-.2-11.8 5.2 0 69.3-6.2 72.7-7 2.2-.5 5.9-1 8.2-1 6.4 0 15.1-5.5 19.2-12.2 7.7-12.3 7.3-26.8-1.4-45.5-2.3-5-13.3-20.3-14.6-20.3-.4 0-2.5-1.7-4.9-3.9-4.4-4-15-9.7-23.5-12.5-6.5-2.3-27.9-3-35.5-1.2m26.1 30.7c14.1 4.3 25.7 16.7 27.7 29.4.7 4 .6 5.8-.2 6-1.2.4-74.1 6.6-76.7 6.5-4.1 0-2.2-16.3 2.6-22.8 1.5-2 3.4-4.8 4.2-6.2 2.1-3.3 11.9-10.4 16.7-12 2.1-.7 7-1.6 11-2 3.9-.4 7.3-.8 7.4-.9.2 0 3.5.8 7.3 2M202.8 361.9c-4.8 1-6.7 2.7-9 7.8-2 4.5-2.2 1.1 14.7 192.6 1.6 18.3 3 28.7 4 30.6 1.8 3.5 7.2 7 11.7 7.7 5.3.7 11.8-3.2 14.5-8.6 2.2-4.5 2.2-4.5-2.1-53-3.8-42.4-4.1-49.1-3-53.3 1.5-5.6 1.4-5.3 1.4-7.1 0-1.4 9.4-14.3 11.9-16.3 11.1-8.8 27.7-11.6 40.5-6.8 7.9 3 18.2 11.6 21 17.5 1.1 2.5 2.4 4.7 2.7 5 1.3 1 2.9 15.6 6.5 57.5 3.7 45 3.9 46 9.2 51.7 1.8 2 3.8 2.9 7.7 3.3 4.6.6 5.8.4 9.3-1.9 5.3-3.3 7.2-6.3 7.7-12 .4-4.7-6.7-85.6-8.4-95.6-.5-3-1.4-7.3-2-9.5-1-4-7.4-16.8-9.5-19.2-.6-.6-2.2-2.7-3.5-4.5-2.5-3.3-14.2-13.8-15.6-13.8-.4 0-2-.9-3.6-2.1-7.7-5.5-23.8-9.6-36.4-9.3-9.1.3-17.4 1.4-18.1 2.5-.3.5-1.5.9-2.6.9-2.9 0-16.4 6.5-20.2 9.7-2.8 2.4-3.1 2.4-3.7.7-.4-1.1-1.9-15.9-3.3-32.9-1.5-17.1-2.9-32-3.2-33.2-.8-3-7.9-8.4-11.7-8.8-1.7-.2-4.9 0-6.9.4m-98 8.7c-1 .3-1.8.9-1.8 1.4s-.9 1.1-2 1.5c-3.2 1-6 6.7-6 12.1.1 5.3 13.6 157.2 14.6 163.9.4 2.2 1 4.4 1.4 5 .4.5 1.3 2.8 2 5 3.7 11.4 14.2 24.6 26 32.7 4.1 2.7 7.9 5.1 8.5 5.2.5.1 2.4.9 4.1 1.8 7.9 4.3 29.9 6.5 37.6 3.9 4.8-1.6 9.8-9.1 9.8-14.5-.1-4.1-3.7-10.3-7.4-12.5-3-1.9-5.4-2.3-13.5-2.6-8.9-.3-10.4-.6-16.7-3.8-7-3.5-15.9-11.8-18.8-17.5-2.5-5-3.6-12.6-6.1-43.2-1.4-16.8-2.8-32.8-3.1-35.6-.6-5.1-.6-5.1 8.3-5.8 17.5-1.4 22.1-2.4 25.4-5.3 5.1-4.5 7.2-10.2 5.5-14.8-.5-1.1-1.2-3.2-1.8-4.7-2.6-6.9-7.7-8.2-26.1-6.6-7.5.6-13.9.9-14.1.7s-1.4-12.3-2.6-26.9c-2.5-28.5-3.6-33.4-9-37.2-2.5-1.8-11.1-3.1-14.2-2.2M423 409.7c-7 .5-18.5 2.7-21 4-1.4.7-3.1 1.3-3.8 1.3-2.8 0-14 7.1-20.5 13.1-7.1 6.5-17.5 20.9-18.3 25.5-.3 1.5-.9 3.5-1.5 4.5-1.4 2.6-3.1 11.5-3.4 17.9-.5 11.5 3.3 51.2 5.5 56.5.5 1.1 1.2 3.1 1.6 4.5 1.8 6.6 9.2 17.8 16.6 25.2 4.3 4.3 8.3 7.8 8.9 7.8s2.5 1.1 4.3 2.5c3.7 2.8 14.4 7.4 18.5 8 1.4.2 4.4.7 6.6 1.2 6.4 1.5 22.2.7 30.5-1.5 7.4-2 18.3-6.8 21.7-9.6 1-.8 3.5-2.9 5.6-4.5 5.6-4.4 14.4-15.8 15.7-20.5 2.2-7.9-1.5-16.2-8.5-19.1-1.6-.7-5.2-1.1-8-1-5.4.4-5.3.3-14.5 11.9-6.2 7.8-14 12.3-23.6 13.7-9.5 1.3-17.1.6-22.3-2-2.2-1.2-4.1-1.9-4.1-1.5 0 .7-8.1-5.7-11.3-8.9-3.5-3.4-7.5-11.3-8.8-17-.7-3.1-1-5.9-.8-6.1s16.4-1.8 36-3.5c19.5-1.7 37.1-3.6 38.9-4.1 1.9-.6 5.6-1 8.2-1 2.7 0 4.8-.4 4.8-.9s1.4-1.2 3.1-1.6c7.5-1.7 16.6-16 16.8-26.6.2-8-5.1-29.1-7.7-30.9-.5-.3-1.9-2.3-3.3-4.6-1.3-2.2-3.7-5.8-5.4-7.9-3.2-4-17-15.5-18.6-15.5-.5 0-2.7-1.1-4.9-2.5-2.1-1.3-5.3-2.7-7.1-3s-3.7-.9-4.3-1.3c-1.6-.9-17.4-2.7-21.6-2.5m10.4 31.4c2.1.6 4.8 1.2 5.9 1.5 1.1.2 3.9 1.6 6.1 3.1 2.3 1.6 4.8 3.1 5.8 3.5.9.4 3.1 2.8 4.9 5.5 1.8 2.6 3.6 4.9 4 5.1 1.3.5 5.1 13 4.7 15.4-.3 2.2-.8 2.3-36.8 5.5-20.1 1.7-38 3.2-39.7 3.2-3.3.1-3.3.1-3.3-6.2 0-4.8.7-7.6 2.9-12.4 4-8.5 6.6-11.8 13.3-16.8 6.4-4.9 10.3-6.4 20.3-7.5 3.9-.4 7.2-.8 7.5-.8.3-.1 2.2.3 4.4.9"/><path d="M830.4 301.4c-5.6 1.8-8.2 3.7-11.5 8.8-2.3 3.3-2.9 5.5-2.9 9.5 0 4.2 15.8 189.9 17.4 204.3.5 4.5.5 4.5-.8 1.3-3.6-8.1-11-12.3-21.7-12.3-18.6 0-33.1-11.4-36.3-28.5-.8-4-6.5-65.8-6.1-66.2.1-.2 5.9-.8 13-1.5 11.6-1 13.2-1.4 17.4-4.2 7.3-4.9 9.1-8.5 9.1-17.6 0-7.7 0-7.8-4.2-12.5-2.3-2.5-5.3-5.2-6.7-5.9-4.1-2.1-11.8-2.7-22.1-1.7-5.4.5-9.7.5-10 0s-1.6-12.4-2.8-26.5-2.7-26.5-3.3-27.6c-1.9-3.5-7.8-8.9-11.4-10.4-5.3-2.2-13.9-.9-19.7 2.9-4.7 3.1-7.4 7.3-8.9 13.6-.9 4.1 12.3 156.5 14.6 168.3 2.7 13.3 10.7 28 20.5 37.3 12 11.5 25.5 18.8 39.7 21.5 8.5 1.6 24.9.8 29-1.4 5.2-2.7 11.3-10.9 11.3-15.3 0-1 1.4.6 3.1 3.5 2.5 4.5 4 5.8 8.6 7.9 10.1 4.6 21.4 1.5 27.2-7.5 4-6.3 4-5.1-.8-60.2-2.5-28.6-3.7-46.1-3.2-49 1.6-9.9 9.4-20.4 18.4-24.8 3.6-1.8 7.1-2.5 14-2.9 8.4-.5 9.7-.3 15.2 2.2 3.5 1.5 8.2 4.8 11.2 7.8 8.2 7.9 8.6 10.2 13.3 64.5 2.5 29.4 4.5 47.5 5.4 49.6 2.1 5.2 7.4 10.5 11.5 11.6 5.9 1.6 12.7 1.2 17.6-1.1 5.3-2.5 7.7-5.3 10.1-11.5 1.6-4.3 1.5-6-2.5-52.6-2.3-26.5-4.7-50.7-5.2-53.7-2.7-15-12.9-31.7-25.3-41.7-17-13.7-34.6-19.1-55.8-17.2-11.7 1-22.8 4-28.8 7.7-1.9 1.1-4 2.1-4.6 2.1s-1.9-10.6-3.3-28.3c-2.4-28.2-2.4-28.2-5.8-33.5-2.6-4.1-4.6-5.9-8.6-7.8-5.8-2.7-9.2-2.9-15.3-1M632.5 308c-5.7.9-17.7 4.7-18.5 5.9-.3.5-2.5 1.9-5 3.1-16.1 8.2-33 34.1-33 50.7 0 9.8 3.3 15.4 11.6 19.4 5.4 2.7 6.8 3 11 2.3 7-1 11.8-3.1 14.1-6.2 3.1-4.2 5.3-8.9 5.3-11.3 0-3.8 5.9-12.8 10.4-15.7 2.2-1.5 4.3-3 4.7-3.4.3-.4 3-1.2 6-1.8 9.3-1.8 20.7 2.3 26.8 9.9 3.5 4.2 7.1 14.5 7.1 20-.2 11.8-6.1 22.5-15.3 27.2-5 2.6-10.5 8.4-12.9 13.7-1.6 3.5-1.8 5.5-1.2 11.5 1.1 12.2 5.6 17.8 18.1 22.8 13.5 5.4 20.6 12.9 23.8 25.3 3.5 13.2-2.6 30.4-13.2 37.7-13.5 9.3-31.6 7.2-42.3-5-5.4-6.1-5.3-5.9-7.4-11.4-2.1-5.6-4.3-7.9-10.4-10.8-5.1-2.5-13.3-2.3-19.3.6-3.7 1.8-9.2 9.4-10.4 14.6-1.1 4.6 1.4 15 5.3 21.4 4.7 7.9 12.4 18.5 13.3 18.5.4 0 2.8 1.9 5.4 4.2 6.7 6 16.9 11.4 26.5 14.1 11.2 3.2 15.3 3.6 26.5 2.6 33.3-2.9 57.6-23.5 67.1-56.9 2.9-10.1 2.6-30.7-.5-42.5-4-14.9-10.3-25.4-20.9-35.1-5.6-5.2-5.6-5.2-3-8.6 3-4 8.9-17 11.2-25.1 1.9-6.4 2.5-29.2.8-32.4-.5-1-1.2-3.8-1.6-6.3-1.7-11.2-15.4-32.1-25.5-38.8-2-1.3-4.5-3.2-5.6-4.2-3.3-2.9-15.6-8.1-22.5-9.6-6.8-1.5-18.1-1.6-26.5-.4m-102.6 8.9c-4.8 1.6-6.6 3-13.5 11.2-3.8 4.5-8.9 10.5-11.4 13.4s-7.2 8.5-10.5 12.5c-3.3 3.9-8.2 9.9-11 13.1-14.3 16.9-14.9 17.9-14.3 26.5.3 5 1 7.2 3.3 10.5 4.6 6.5 7.4 8.1 15.2 8.6 8.4.7 14.8-1.9 19.6-8 1.8-2.2 5.2-6.2 7.7-9 4.5-5 4.5-5 5.1 1.4.4 3.5 3.7 41.5 7.4 84.4 6.7 76.9 6.8 78.1 9.6 84 3.6 7.6 7.6 10.5 15.7 11.2 3.5.3 7.4 0 9.6-.7 5.1-1.7 10.6-6.6 12.8-11.6 1.8-4.1 1.7-4.7-8.3-119.5-9.8-112.1-10.1-115.5-12.5-119.1-3.7-5.8-9.5-9.1-16.2-9.5-3.2-.1-6.9.1-8.3.6"/></svg>